<?xml version="1.0" encoding="UTF-8" standalone="no" ?>
<!DOCTYPE svg PUBLIC "-//W3C//DTD SVG 1.1//EN" "http://www.w3.org/Graphics/SVG/1.1/DTD/svg11.dtd">
<svg xmlns="http://www.w3.org/2000/svg" xmlns:xlink="http://www.w3.org/1999/xlink" version="1.1" width="1280" height="1024" viewBox="0 0 1280 1024" xml:space="preserve">
<desc>Created with Fabric.js 5.3.0</desc>
<defs>
</defs>
<g transform="matrix(1 0 0 1 640 512)" id="background-logo"  >
<rect style="stroke: none; stroke-width: 0; stroke-dasharray: none; stroke-linecap: butt; stroke-dashoffset: 0; stroke-linejoin: miter; stroke-miterlimit: 4; fill: rgb(255,255,255); fill-opacity: 0; fill-rule: nonzero; opacity: 1;"  paint-order="stroke"  x="-640" y="-512" rx="0" ry="0" width="1280" height="1024" />
</g>
<g transform="matrix(1.9211538461538462 0 0 1.9211538461538462 639.9999792777294 509.0456485309279)" id="logo-logo"  >
<g style=""  paint-order="stroke"   >
		<g transform="matrix(0.7073027589765922 0 0 0.7073027589765922 0.00001078636711326908 -18.748822260515)"  >
<path style="stroke: none; stroke-width: 1; stroke-dasharray: none; stroke-linecap: butt; stroke-dashoffset: 0; stroke-linejoin: miter; stroke-miterlimit: 4; fill: rgb(0,0,0); fill-rule: nonzero; opacity: 1;"  paint-order="stroke"  transform=" translate(-536.5561218500002, -490.76187129999994)" d="M 411.0425415 602.2766113 C 416.5274048 592.3753051 423.2227173 586.2791137 435.2979126 575.4680786 C 448.0828247 564.0216064 451.8304443 562.7055054 457.5957642 557.3404541 C 466.47021490000003 549.0820923 476.8457642 534.2819824 480.5744629 505.76593019999996 C 473.6628418 506.78820799999994 468.4018555 505.67205809999996 465.08514410000004 504.57446289999996 C 450.9995728 499.913147 440.9771119 485.32690429999997 438.36169440000003 467.29785159999994 C 443.29791270000004 468.20568849999995 448.2340699 469.11346439999994 453.17022710000003 470.02124029999993 C 450.69677740000003 467.4296264999999 446.6159058 462.3663940999999 445.5106812 455.21276859999995 C 443.8980713 444.77526859999995 449.62036140000004 436.36199959999993 452.659607 431.89361579999996 C 463.4980469 415.95837409999996 498.6469117 402.50964359999995 545.5957642 397.51062019999995 C 544.8306885 399.90759289999994 543.4192505 403.29956059999995 540.6595459 406.53192149999995 C 532.8752441 415.6494751999999 521.9434814 414.61914069999995 510.7021484 419.29785169999997 C 504.0319824 422.0740358 495.4674072 427.60333269999995 487.3829956 439.72338879999995 C 491.0141602 440.74469009999996 494.6453857 441.7659303 498.2766113 442.7872315999999 C 525.6547241000001 434.7306519999999 544.2276001 435.4121705999999 556.4893799 437.8510743999999 C 561.7816162 438.9036866999999 576.0269776 442.2982789999999 594.1063843000001 439.2127686999999 C 599.1652222 438.3493653999999 603.2684937 437.1929932999999 606.0213013 436.3191529999999 C 604.756958 435.33398449999993 602.3717652 433.5356446999999 599.2127686 431.55316179999994 C 584.135254 422.0910645999999 574.1089478 422.66741959999996 567.5531617 413.5106202999999 C 566.5560304 412.11792009999994 565.0163575 409.6300660999999 563.9786988000001 405.8510743999999 C 579.2650147 405.7567750999999 591.3482056 408.5830689999999 599.3829957 411.1276246999999 C 604.1214601 412.6282960999999 631.0462037000001 421.50323509999987 641.0850831 440.2340089999999 C 643.6903077000001 445.0949708999999 644.0881959000001 448.6229860999999 643.2978517 451.6383058999999 C 641.4705202 458.60961939999993 633.6090089 461.62896749999993 632.0638429 462.19146749999993 C 638.5886842000001 462.70214869999995 645.1134645000001 463.21276879999994 651.6383058 463.7233888999999 C 650.9854738 467.96289089999993 649.2178956 475.3506471999999 643.7659303 482.5319215999999 C 633.0999756 496.5809326 616.8284912 498.6488037 613.5106201 499 C 609.4492798 504.1999512 604.8176268999999 511.0922241 600.7446899 519.7233887 C 595.7007446 530.4123535 593.1985473 540.197815 591.8936157 547.6383056999999 C 599.8147583000001 551.2289428999999 608.6384277000001 556.2357178 617.4255371 563.2978516 C 647.7138672000001 587.6403809 658.0492554 620.7128296 661.7200928000001 636.4519042999999 C 691.1006470000001 605.5089110999999 709.1306763000001 563.6842651 709.1306763000001 517.6464232999999 C 709.1306763000001 422.33612059999996 631.8663941000001 345.0718382999999 536.5560913000002 345.0718382999999 C 441.24578850000023 345.0718382999999 363.98156740000013 422.3361204999999 363.98156740000013 517.6464232999999 C 363.98156740000013 559.1325682999999 378.6250000000001 597.1957396999999 403.0189209000001 626.9600829999999 C 404.6057739 615.4060059 408.3112793 607.2070923 411.0425415 602.2766113 z" stroke-linecap="round" />
</g>
		<g transform="matrix(0.7073027589765922 0 0 0.7073027589765922 -3.25654338157716 18.641988023039517)"  >
<path style="stroke: none; stroke-width: 1; stroke-dasharray: none; stroke-linecap: butt; stroke-dashoffset: 0; stroke-linejoin: miter; stroke-miterlimit: 4; fill: rgb(10,34,36); fill-rule: nonzero; opacity: 1;"  paint-order="stroke"  transform=" translate(-531.95193485, -543.6258108351092)" d="M 402.2498169 630.0999756 C 403.5111389 616.7313233 407.68243409999997 607.4176636 410.6753235 602.0148925999999 C 416.16018679999996 592.1135863999999 422.8554993 586.017395 434.9306641 575.2063598999999 C 447.7156067 563.7598876999999 451.4631958 562.4437866999999 457.2285157 557.0787353999999 C 466.1029664 548.8203735999999 476.4785157 534.0202636999999 480.2072449 505.5042419999999 C 473.29559329999995 506.5264892999999 468.034607 505.41033939999994 464.7178955 504.31274419999994 C 450.6323547 499.65145879999994 440.6098938 485.06518559999995 437.9944763 467.03616339999996 C 442.930664 467.9439698 447.86682129999997 468.8517457 452.803009 469.75955209999995 C 450.32955929999997 467.16793829999995 446.24868769999995 462.10470589999994 445.1434326 454.95104989999993 C 443.5308227 444.51354989999993 449.2531433 436.10031139999995 452.29235839999996 431.63189709999995 C 463.1307983 415.6966858999999 498.2796936 402.24795539999997 545.2285155999999 397.24893199999997 C 544.4634398999999 399.64587409999996 543.0520018999999 403.03787239999997 540.2922973 406.2702028 C 532.5079955 415.38775649999997 521.5762328 414.357422 510.33489979999996 419.0361635 C 503.66473379999996 421.8123171 495.10018909999997 427.34161389999997 487.015747 439.4617006 C 490.6469421 440.4829714 494.2781677 441.5042421 497.9093627 442.52551289999997 C 525.2874755 434.46893329999995 543.8603515 435.1504824 556.1221313 437.58935569999994 C 561.4143676 438.64199849999994 575.659729 442.03656029999996 593.7391357 438.95104999999995 C 598.7979736 438.0876772 602.9012451 436.93127459999994 605.6540527 436.05743429999995 C 604.3897094 435.07229639999997 602.0045166 433.27392599999996 598.84552 431.29147359999996 C 583.7680054 421.82937639999994 573.7416992 422.40570089999994 567.1859131 413.24893209999993 C 566.1887818 411.8562013999999 564.6491089 409.36834739999995 563.6114502 405.58935569999994 C 578.8977661 405.49508689999993 590.980957 408.32135029999995 599.0157471 410.8659364999999 C 603.7542115 412.3666078999999 630.6789551 421.2415468999999 640.7178345 439.9723207999999 C 643.3230591 444.83325219999995 643.7209473 448.3612978999999 642.9306031 451.3765871999999 C 641.1032716 458.3479006999999 633.2417603 461.3672487999999 631.6965943 461.9297792999999 C 638.2214356000001 462.4404298999999 644.7462159 462.9510500999999 651.2710572 463.4617006999999 C 650.6182252 467.7011720999999 648.850647 475.0889589999999 643.3986817 482.2702028999999 C 632.7327271 496.3192445999999 616.4612427 498.3871156999999 613.1433716 498.7382814999999 C 609.0820313 503.9382326999999 604.4503784 510.8305055999999 600.3774414000001 519.4616702 C 595.3334961 530.150635 592.8312988 539.9360965 591.5263672000001 547.3765871999999 C 599.4475098000001 550.9672243999998 608.2711792000001 555.9739993 617.0582886000001 563.0361330999999 C 648.2138672000001 588.0756839 658.2596436000001 622.3577883999999 661.6540528 637.5042116999999 C 651.5493775 647.5160524999999 609.3592530000001 687.0213014999999 543.1859132000001 689.8446657999999 C 461.5068665 693.3295898 409.5297546 638.1018066 402.2498169 630.0999756 z" stroke-linecap="round" />
</g>
		<g transform="matrix(0.7073027589765922 0 0 0.7073027589765922 -3.2565325244797805 15.003731000178902)"  >
<linearGradient id="SVGID_10_3_1618954" gradientUnits="userSpaceOnUse" gradientTransform="matrix(1 0 0 1 400.3656923 392.00128159999997)"  x1="131.58625790000013" y1="0" x2="131.58625790000008" y2="292.9613649000001">
<stop offset="0%" style="stop-color:rgb(68,255,166);stop-opacity: 1"/>
<stop offset="100%" style="stop-color:rgb(168,255,244);stop-opacity: 1"/>
</linearGradient>
<path style="stroke: none; stroke-width: 1; stroke-dasharray: none; stroke-linecap: butt; stroke-dashoffset: 0; stroke-linejoin: miter; stroke-miterlimit: 4; fill: url(#SVGID_10_3_1618954); fill-rule: nonzero; opacity: 1;"  paint-order="stroke"  transform=" translate(-531.9519502, -538.48196405)" d="M 568.3723755 579.0560913 C 561.6448975 581.8226318000001 556.4490357 575.9438476 549.6452637 575.4838257 C 544.1436768 575.1118775 536.1659546 578.1800537 525.6139527 593.8862305 C 529.628418 600.4429932 531.204773 603.0910034 534.9233399 605.1441651 C 537.7589722 606.7098389 540.3085937999999 607.0839844 542.4619141 607.3796387 C 551.9031983 608.6761475 554.0897216999999 604.656189 564.0424194999999 604.4946289 C 572.6021728999999 604.3557129 576.1742554 607.2449951 579.7385254999999 604.4946289 C 582.4566040999999 602.3972778 583.0690308999999 598.6416016 583.1949463999999 595.9907837 C 581.8972169 596.1921997 580.2290039999999 596.3563233 578.0324098 596.4842529 C 575.4228517 596.6361694 571.8167116 596.7523193 567.4780885 596.5924682 C 571.8568727 587.9909057 578.2204591 582.6235351 583.8107911 583.4082031 C 583.9523316 583.4281006 584.1105348 583.4566040000001 584.2736206999999 583.4884643 C 584.2774658999999 579.8460082 584.2812501 576.2035522 584.2850342999999 572.5610961 C 582.7970581999999 572.8130492 580.5820923999999 573.2775878 578.0065918999999 574.1848754 C 572.7355347 576.041626 571.0042725 577.9737549 568.3723755 579.0560913 z M 551.1607666 596.4842529 C 544.2406616 596.0813598 542.5335693 595.3226318 541.2559204 594.1568603 C 541.1257934 594.0381468999999 537.987915 591.1109618999999 538.8203125 587.9866331999999 C 539.642395 584.9010619 543.5302734 583.6681517999999 545.3823853 583.408203 C 550.9726563 582.623535 557.3363038 587.9909055999999 561.7150879 596.5924680999999 C 557.3764648 596.7523193 553.7703247 596.6361694 551.1607666 596.4842529 z M 420.3607483 644.204895 C 419.9510193 637.3111571999999 420.3339844 626.1594238 425.48333740000004 613.8586425999999 C 432.84878540000005 596.2640991 445.58428950000007 586.8011475 450.8136597 583.3323363999999 C 445.0931092 588.5207518999999 436.14175420000004 597.9469604 429.38031010000003 612.2349242999999 C 423.4141541 624.8422850999999 421.45959480000005 636.3545531999998 420.8180542 644.2119750999999 C 420.6653137 644.2059937 420.5131836 644.2071533 420.3607483 644.204895 z M 519.3354492 581.5458374 C 520.7036132999999 584.6515502999999 522.7442016 588.9391479 525.6139526 593.8862305 C 516.1235962 578.3858033 513.5490722 574.5969239 510.59567259999994 566.3084107 C 510.10571289999996 564.9332886 509.77099609999993 563.9004517 509.70129389999994 563.6846314 C 508.18215939999993 558.0214233999999 506.84600829999994 550.4264526999999 507.2115172999999 541.4935303 C 507.3785704999999 537.4118042 507.8739318999999 533.7092895999999 508.5105589999999 530.4521485 C 508.5321653999999 532.7235718000001 508.6235350999999 536.1262208 508.9691160999999 540.2389527 C 510.6887207 560.7036743 516.7680054 575.7175293 519.3354492 581.5458374 z M 515.3370361 495.0906372 C 519.1073607999999 496.2750244 542.2809447999999 503.9812012 553.4339599 528.3953857 C 562.5581664 548.3684082 557.7885742 566.7204589 556.3566893999999 571.586853 C 557.5065307 565.364563 559.8009033 548.3148193000001 551.1607664999999 529.6943969 C 548.2265623999999 523.3709716 544.5931394999999 518.0864257000001 540.7609251999999 513.6918945 C 534.5657347999999 518.5354614 525.8994749999998 518.5316162 520.0990599999999 513.8049926 C 514.7619019 509.4558411 512.7816772 501.8726807 515.3370361 495.0906372 z M 499.4770508 683.8566284 C 499.69317629999995 683.901062 499.9178467 683.9454346 500.1380615 683.9899292 C 499.6624756 684.177063 499.1859436 684.3615723 498.711914 684.5527954 C 498.4049377 684.6765747000001 498.10717769999997 684.8157349 497.81475819999997 684.9626465 C 495.85244739999996 684.5939331 493.897705 684.1890869 491.9501952 683.7543945 C 492.3193053 682.5111084 492.6302184 681.250061 492.8922728 679.9691162 C 493.371002 680.1046142 493.8548277 680.2460327 494.3298644 680.3773804 C 497.3813781 672.954834 501.09136950000004 661.4285279 501.7990722 646.9283448 C 502.61526480000003 630.2052613 499.08230580000003 616.8161622 496.27838130000004 608.7705079 C 499.78295890000004 614.9779053999999 503.99002070000006 624.2503053 505.9125366 636.1034546999999 C 509.5062561 658.2599487 502.9454041 676.0412598 499.4770508 683.8566284 z M 655.6586304 636.0391846 C 653.7589112 624.43927 648.8980103 606.5875244 635.8117066 588.9067383 C 618.0327149 564.8858032 595.3760987 555.1081543 586.2749024 551.7348633 C 587.2902832999999 546.1652832 588.7764893 540.1793213000001 590.9423829 533.9161377 C 593.9792481 525.1342163 597.666565 517.7589722 601.1719361 511.83328250000005 C 599.8822632 513.0922242 597.9035035 514.7301636000001 595.1640626000001 516.0549927000001 C 591.2577516000001 517.9440918 587.6793214 518.2899170000001 585.5840455000001 518.3282471000001 C 583.3215333000002 522.4761963000001 580.9437257000001 527.9866944000001 579.5761720000002 534.7280274000001 C 576.0544435000002 552.0886231000001 581.5004274000001 566.4353028 584.2850343000001 572.5610962000001 C 583.5285035000002 571.1448975000001 567.4387819000001 539.8570557 584.2850343000001 514.1065064000001 C 591.0668336000001 503.74017340000006 600.4589845000002 498.43994150000003 606.0430909000002 495.92062380000004 C 606.1255494000002 495.33776860000006 606.2028199000001 494.73153690000004 606.2757569000001 494.11022950000006 C 609.6714478000001 494.75857540000004 613.6175538000001 495.0114136000001 617.8964234000001 494.29687500000006 C 636.8328858000001 491.1347046000001 646.0526734000001 471.8172607000001 647.2861329000001 469.1289062000001 L 611.4817506 469.1289062000001 C 617.6760865000001 466.5017395000001 622.4826051 463.6437377000001 625.9611207 461.29653930000006 C 633.1937867 456.41598510000006 638.4107667000001 452.79183960000006 638.817505 447.42895510000005 C 639.4396363 439.22552490000004 628.3977052 432.34121710000005 620.1829835 427.3498230000001 C 610.4769288 421.4523621000001 594.2774049 413.68041990000006 570.7796632 411.0265198000001 C 588.9594728 416.94488530000007 600.9114380999999 424.62115480000006 608.1932373999999 430.2389221000001 C 613.0357056999999 433.9747314000001 615.6951294999999 436.7093811000001 615.1270142999999 439.0506286000001 C 614.0765382 443.3802184000001 602.4839479 444.3250427000001 592.4932862999999 444.39666740000007 C 579.2580568 441.96466060000006 562.4033205 440.12948600000004 542.933777 441.0382079000001 C 526.6653444 441.7975158000001 512.5017702 444.29061880000006 500.94616709999997 447.1392516000001 C 490.403534 446.57186880000006 480.62673959999995 444.8546141000001 479.53353889999994 440.3489989000001 C 478.7865906999999 437.2704772000001 482.28341679999994 433.6746825000001 488.65078739999996 428.76248160000006 C 498.225647 421.3756713000001 513.9413453 411.28207390000006 537.8460693999999 403.49999990000003 C 506.9488525999999 406.9896544 485.6480102999999 417.20898430000005 472.88552859999993 424.96359240000004 C 462.0838928999999 431.5267638 447.5648193999999 440.57897940000004 448.3828735999999 451.365692 C 448.91763309999993 458.4173888 455.7774658999999 463.18280020000003 465.28778079999995 469.6002196 C 467.8897094999999 471.3559874 471.06472779999996 473.33026110000003 474.80874639999996 475.3416747 C 469.24017339999995 476.6549376 462.69906619999995 477.415161 455.46838389999994 476.7604674 C 451.53836069999994 476.40466299999997 447.9858704999999 475.68441759999996 444.85995489999993 474.81198109999997 C 445.3606262999999 476.3761901 451.8810730999999 495.68463119999996 469.97378549999996 500.1423339 C 477.2963258 501.9464721 483.67575079999995 500.61871329999997 487.34780889999996 499.4928283 C 486.90792849999997 513.9416503 483.8734742 532.319519 472.40939339999994 548.8545531999999 C 456.5786438999999 571.6878052 435.8368530999999 573.1146849999999 420.61212169999993 596.9172362999999 C 412.02880869999996 610.3365478 409.36785899999995 624.1979369999999 408.51849379999993 633.9251097999999 C 406.1193543999999 631.0808714999998 403.87738049999996 628.1036375999998 401.84680189999995 624.9584349999999 C 401.42398089999995 624.3034667 400.9215394 623.7203978999999 400.3656922999999 623.2073973999999 C 402.5110169999999 611.6628416999998 406.5933839999999 601.1303099999999 412.5758057999999 591.7774046999999 C 421.4461060999999 577.9091795999999 432.1795655999999 570.5918578 441.6491394999999 564.1365355999999 C 449.99401869999986 558.4476317999998 457.8758850999999 553.0742186999998 464.56964119999986 543.4192503999999 C 470.97027599999984 534.1878661 475.08666999999986 523.1721190999999 476.8613281999999 510.5658567999999 C 473.7544861999999 510.52920519999986 470.67218029999987 510.13919049999987 467.6917114999999 509.4050901999999 C 444.71377569999987 503.74353009999993 436.6213684999999 480.3665464999999 435.77456669999987 477.7195737999999 L 430.38159179999985 460.86776719999995 L 444.17190549999987 464.71615589999993 C 441.2280577999999 461.1540830999999 439.2499999999999 457.0855100999999 438.8708495999999 452.0869139999999 C 437.5933226999999 435.2447203999999 455.8509215999999 424.1516722999999 467.9320678999999 416.8110655999999 C 488.07238769999987 404.5734251999999 511.2348022999999 396.9055174999999 536.7755126999999 394.0206907999999 C 543.2664795 393.3475340999999 549.7575072999999 392.6744383999999 556.2484741 392.0012815999999 C 556.1782837 394.1914365999999 555.7374266999999 398.3162534999999 553.2174682 402.6097105999999 C 549.192871 409.4667662999999 542.6976318 411.92794789999994 540.7993774 412.5708006999999 C 522.0210571 418.3939207999999 506.84963990000006 426.7807921999999 494.4779968 436.3154295999999 C 494.21527100000003 436.5179136999999 493.96438600000005 436.7132261999999 493.72402950000003 436.9023436999999 C 495.4170227 437.1423644999999 497.5093689 437.3644103999999 500.08273310000004 437.53176869999993 C 513.9873046 434.1994932999999 528.2468261 432.1739195999999 542.4892578 431.50906359999993 C 546.0001221 431.34509269999995 549.5618896 431.26217639999993 553.0764770000001 431.26217639999993 C 566.5186767 431.26217639999993 580.0472412 432.4682920999999 593.3049316 434.84851059999994 C 595.1079101 434.82553089999993 596.7033691 434.77243029999994 598.1169433 434.6988218999999 C 589.4034423 428.7145994999999 579.2391967 423.81289659999993 567.8266601 420.0974119999999 C 566.6957397 419.6682127999999 558.9401245 416.5804746999999 556.4649658000001 408.5634458999999 C 555.345581 404.9375913999999 555.7473755000001 401.7324216999999 556.1401977 399.9034727999999 C 561.3769531 400.4514158999999 566.6137084000001 400.9993894999999 571.8504638 401.5473020999999 C 598.9420165 403.7896726999999 616.1735839 413.7508542999999 625.1367187000001 419.19717389999994 C 634.8016357 425.06991559999994 649.4071044000001 433.9445493999999 648.3295898000001 448.1506650999999 C 647.9793090000002 452.7697751999999 646.0515136000001 456.44427469999994 643.2952270000001 459.58932479999993 L 662.158081 459.58932479999993 L 655.9567871 473.10665879999993 C 652.1704101 480.13262929999996 640.2279053000001 500.09893789999995 619.4677124 503.70626819999995 C 617.3775024 504.0694579 615.1116943 504.28176869999993 612.6739502 504.26705919999995 C 607.9573364 511.96084579999996 602.9953003 522.0394286 599.7105713000001 534.4032592 C 598.6340942 538.4552001 597.8497925 542.3306884 597.2853394000001 545.9780273 C 610.2263184000001 551.8998413 628.6065674000001 563.1372680000001 643.4790650000001 583.2316284 C 654.6317750000001 598.2998047 660.5075074000001 613.652893 663.5382081000001 626.7134399 C 663.4256593000001 626.8359985000001 662.7236939000002 628.2734985000001 662.5782472000001 628.5023193000001 C 662.3919069000001 628.8034668 662.1886598000001 629.0933227 661.9827882000001 629.3814697 C 661.9344484000001 629.4382324000001 661.8628541 629.5241699000001 661.7626344 629.6461181000001 C 660.4967042000001 631.1527099000001 659.0869752 632.5332641000001 657.7024537 633.929016 C 657.0148315 634.6222534 656.3312988 635.3250732 655.6586304 636.0391846 z M 631.519165 656.1535645 C 631.9351196 653.3145752 632.1981201000001 650.1171265 632.1312255 646.6036377 C 631.9580688 637.5092163 629.6857299000001 630.2446289000001 627.8012084000001 625.6032715 C 630.5893554 630.1370239 634.2109374 637.40448 635.5952147 646.9283447 C 635.8716429000001 648.8302612 636.0285033 650.6432495 636.1052245000001 652.3638916 C 634.7391357 653.7853394 633.1875 655.0233154 631.519165 656.1535645 z M 454.0611267 450.9430237 C 454.8317871 457.45837400000005 460.2210693 460.829895 460.91207879999996 461.24636840000005 C 456.0488281 459.6582642000001 452.43579099999994 455.9629211000001 451.7879028 451.5925293 C 451.16677849999996 447.4022522 453.47973629999996 443.9962769 454.3858947 442.66195680000004 C 456.8029174 439.1028443 460.0632934 437.53030400000006 461.4878844 436.9433594 C 456.3362732 439.8746643 453.4080505 445.4214172 454.0611267 450.9430237 z" stroke-linecap="round" />
</g>
		<g transform="matrix(0.7073027589765922 0 0 0.7073027589765922 0 0)"  >
<linearGradient id="SVGID_10_3_1618955" gradientUnits="userSpaceOnUse" gradientTransform="matrix(1 0 0 1 358.53530890000013 339.2485656999999)"  x1="131.58625790000013" y1="0" x2="131.58625790000008" y2="292.9613649000001">
<stop offset="0%" style="stop-color:rgb(68,255,166);stop-opacity: 1"/>
<stop offset="100%" style="stop-color:rgb(168,255,244);stop-opacity: 1"/>
</linearGradient>
<path style="stroke: none; stroke-width: 1; stroke-dasharray: none; stroke-linecap: butt; stroke-dashoffset: 0; stroke-linejoin: miter; stroke-miterlimit: 4; fill: url(#SVGID_10_3_1618955); fill-rule: nonzero; opacity: 1;"  paint-order="stroke"  transform=" translate(-536.5561066000001, -517.2693633499998)" d="M 536.5560913 350.4335632 C 628.6969604000001 350.4335632 703.3919067 425.12847899999997 703.3919067 517.2694091 C 703.3919067 609.4103392 628.6969604000001 684.1051635 536.5560913 684.1051635 C 444.4152222 684.1051635 369.7203064 609.4102782 369.7203064 517.2694091 C 369.7203064 425.12853999999993 444.4152222 350.4335632 536.5560913 350.4335632 M 536.5560913 339.2485657 C 512.5283813000001 339.2485657 489.2134399 343.9569092 467.25894160000007 353.24291989999995 C 446.05902090000006 362.20971679999997 427.0218811000001 375.0441284 410.6763916000001 391.38964839999994 C 394.3308716000001 407.7351378999999 381.4964600000001 426.7722777999999 372.5296631000001 447.9721983999999 C 363.2436524000001 469.9266966999999 358.53530890000013 493.2416990999999 358.53530890000013 517.2694090999998 C 358.53530890000013 541.2971190999998 363.24365240000014 564.6120604999999 372.5296631000001 586.5665892999998 C 381.4964600000001 607.7664793999998 394.33087160000014 626.8036497999998 410.6763916000001 643.1491087999998 C 427.0218811000001 659.4946287999998 446.0590210000001 672.3289793999998 467.25894160000007 681.2958372999998 C 489.2134399000001 690.5817869999997 512.5283813000001 695.2901609999998 536.5560913 695.2901609999998 C 560.5838013 695.2901609999998 583.8987427000001 690.5817869999997 605.8532104000001 681.2958372999998 C 627.0531616000001 672.3289793999998 646.0903320000001 659.4946287999998 662.4357910000001 643.1491087999998 C 678.7813110000001 626.8036497999998 691.6157226000001 607.7664793999998 700.5825195000001 586.5665892999998 C 709.8685302000001 564.6120604999998 714.5769043000001 541.2971190999998 714.5769043000001 517.2694090999998 C 714.5769043000001 493.2416990999999 709.8685303000001 469.92669669999987 700.5825195000001 447.97219839999985 C 691.6157226000001 426.77227769999985 678.7813110000001 407.73513789999987 662.4357910000001 391.3896483999998 C 646.0903320000001 375.0441283999998 627.0531616000001 362.20971679999985 605.8532104000001 353.24291989999983 C 583.8987427 343.9569092 560.5838013 339.2485657 536.5560913 339.2485657 L 536.5560913 339.2485657 z" stroke-linecap="round" />
</g>
</g>
</g>
<g transform="matrix(0.7286627044216117 -1.7776059078931694 1.7776059078931696 0.7286627044216119 353.9252277518548 390.443917586607)" id="text-logo-0"  >
<g style=""  paint-order="stroke"   >
		<g transform="matrix(1 0 0 1 0 0)" id="text-logo-0-path-0"  >
<path style="stroke: rgb(0,0,0); stroke-width: 3; stroke-dasharray: none; stroke-linecap: butt; stroke-dashoffset: 0; stroke-linejoin: miter; stroke-miterlimit: 4; fill: rgb(112,235,174); fill-rule: nonzero; opacity: 1;"  paint-order="stroke"  transform=" translate(-9.959999999999999, 11.31)" d="M 18.47 -10.73 L 18.47 -11.89 C 18.47 -19.72 15.81 -22.62 8.7 -22.62 L 1.45 -22.62 L 1.45 0 L 8.7 0 C 15.81 0 18.47 -2.9 18.47 -10.73 Z M 6.96 -4.76 L 6.96 -17.86 L 8.41 -17.86 C 12.18 -17.86 12.88 -15.81 12.88 -11.89 L 12.88 -10.73 C 12.88 -6.82 12.18 -4.76 8.41 -4.76 Z" stroke-linecap="round" />
</g>
</g>
</g>
<g transform="matrix(1.0230204937868335 -1.6261184366102794 1.6261184366102794 1.0230204937868335 378.1405976791647 343.4762342012714)" id="text-logo-1"  >
<g style=""  paint-order="stroke"   >
		<g transform="matrix(1 0 0 1 0 0)" id="text-logo-1-path-0"  >
<path style="stroke: rgb(0,0,0); stroke-width: 3; stroke-dasharray: none; stroke-linecap: butt; stroke-dashoffset: 0; stroke-linejoin: miter; stroke-miterlimit: 4; fill: rgb(112,235,174); fill-rule: nonzero; opacity: 1;"  paint-order="stroke"  transform=" translate(-9.424999999999999, 11.31)" d="M 5.66 -22.62 L 0.26 0 L 6.18 0 L 7.08 -4.58 L 11.77 -4.58 L 12.7 0 L 18.59 0 L 13.2 -22.62 Z M 9.43 -16.24 L 10.82 -9.34 L 8.03 -9.34 Z" stroke-linecap="round" />
</g>
</g>
</g>
<g transform="matrix(1.287000880657332 -1.4263452715871314 1.4263452715871314 1.287000880657332 410.4058637754892 300.8634030721215)" id="text-logo-2"  >
<g style=""  paint-order="stroke"   >
		<g transform="matrix(0.9999999999999999 0 0 1 0 0)" id="text-logo-2-path-0"  >
<path style="stroke: rgb(0,0,0); stroke-width: 3; stroke-dasharray: none; stroke-linecap: butt; stroke-dashoffset: 0; stroke-linejoin: miter; stroke-miterlimit: 4; fill: rgb(112,235,174); fill-rule: nonzero; opacity: 1;"  paint-order="stroke"  transform=" translate(-9.424999999999999, 11.31)" d="M 1.45 -22.62 L 1.45 0 L 9.57 0 C 13.17 0 17.4 -0.78 17.4 -6.67 L 17.4 -7.25 C 17.4 -9.54 16.39 -10.9 14.94 -11.69 C 16.07 -12.47 16.82 -13.69 16.82 -15.6 L 16.82 -16.18 C 16.82 -21.87 12.88 -22.62 9.43 -22.62 Z M 9.71 -9.16 C 10.61 -9.16 11.83 -8.85 11.83 -7.08 L 11.83 -6.84 C 11.83 -5.08 10.61 -4.76 9.71 -4.76 L 6.96 -4.76 L 6.96 -9.16 Z M 9.34 -17.86 C 10.15 -17.86 11.25 -17.63 11.25 -16.07 L 11.25 -15.72 C 11.25 -14.15 10.15 -13.92 9.34 -13.92 L 6.96 -13.92 L 6.96 -17.86 Z" stroke-linecap="round" />
</g>
</g>
</g>
<g transform="matrix(1.504289089456171 -1.1949671275540765 1.1949671275540765 1.504289089456171 447.7899244470566 265.80359550222585)" id="text-logo-3"  >
<g style=""  paint-order="stroke"   >
		<g transform="matrix(1 0 0 1 0 0)" id="text-logo-3-path-0"  >
<path style="stroke: rgb(0,0,0); stroke-width: 3; stroke-dasharray: none; stroke-linecap: butt; stroke-dashoffset: 0; stroke-linejoin: miter; stroke-miterlimit: 4; fill: rgb(112,235,174); fill-rule: nonzero; opacity: 1;"  paint-order="stroke"  transform=" translate(-8.555, 11.31)" d="M 1.45 -22.62 L 1.45 0 L 15.66 0 L 15.66 -4.76 L 6.96 -4.76 L 6.96 -9.16 L 14.21 -9.16 L 14.21 -13.92 L 6.96 -13.92 L 6.96 -17.86 L 15.66 -17.86 L 15.66 -22.62 Z" stroke-linecap="round" />
</g>
</g>
</g>
<g transform="matrix(1.6809877578138466 -0.9301141105647699 0.9301141105647699 1.6809877578138466 490.2228321752141 237.52046952032975)" id="text-logo-4"  >
<g style=""  paint-order="stroke"   >
		<g transform="matrix(1 0 0 1 0 0)" id="text-logo-4-path-0"  >
<path style="stroke: rgb(0,0,0); stroke-width: 3; stroke-dasharray: none; stroke-linecap: butt; stroke-dashoffset: 0; stroke-linejoin: miter; stroke-miterlimit: 4; fill: rgb(112,235,174); fill-rule: nonzero; opacity: 1;"  paint-order="stroke"  transform=" translate(-9.424999999999999, 11.31)" d="M 5.66 -22.62 L 0.26 0 L 6.18 0 L 7.08 -4.58 L 11.77 -4.58 L 12.7 0 L 18.59 0 L 13.2 -22.62 Z M 9.43 -16.24 L 10.82 -9.34 L 8.03 -9.34 Z" stroke-linecap="round" />
</g>
</g>
</g>
<g transform="matrix(1.813785282152573 -0.633257491734939 0.633257491734939 1.8137852821525733 538.0252557709183 216.13697833020154)" id="text-logo-5"  >
<g style=""  paint-order="stroke"   >
		<g transform="matrix(1 0 0 1 0 0)" id="text-logo-5-path-0"  >
<path style="stroke: rgb(0,0,0); stroke-width: 3; stroke-dasharray: none; stroke-linecap: butt; stroke-dashoffset: 0; stroke-linejoin: miter; stroke-miterlimit: 4; fill: rgb(112,235,174); fill-rule: nonzero; opacity: 1;"  paint-order="stroke"  transform=" translate(-9.28, 11.31)" d="M 8.44 -9.08 C 11.48 -8.67 12.09 -7.89 12.09 -6.58 L 12.09 -6.47 C 12.09 -5.37 11.31 -4.35 9.43 -4.35 L 9.13 -4.35 C 7.25 -4.35 6.38 -5.34 6.38 -7.83 L 0.87 -7.83 L 0.87 -7.57 C 0.87 -1.89 3.77 0.41 9.28 0.41 C 14.82 0.41 17.69 -2.18 17.69 -6.61 L 17.69 -6.93 C 17.69 -11.37 15.05 -12.93 10.12 -13.6 C 7.08 -14.01 6.61 -14.7 6.61 -16.1 L 6.61 -16.21 C 6.61 -17.37 7.4 -18.27 8.99 -18.27 L 9.28 -18.27 C 11.31 -18.27 12.04 -17.05 12.04 -14.5 L 17.55 -14.5 L 17.55 -15.11 C 17.55 -20.59 14.99 -23.03 9.28 -23.03 C 3.83 -23.03 1.02 -20.27 1.02 -16.07 L 1.02 -15.75 C 1.02 -11.31 3.51 -9.74 8.44 -9.08 Z" stroke-linecap="round" />
</g>
</g>
</g>
<g transform="matrix(1.8927982485624846 -0.32885694584500913 0.32885694584500913 1.8927982485624846 587.0449938107123 203.4129349905598)" id="text-logo-6"  >
<g style=""  paint-order="stroke"   >
		<g transform="matrix(0.9999999999999999 0 0 1 0 0)" id="text-logo-6-path-0"  >
<path style="stroke: rgb(0,0,0); stroke-width: 3; stroke-dasharray: none; stroke-linecap: butt; stroke-dashoffset: 0; stroke-linejoin: miter; stroke-miterlimit: 4; fill: rgb(112,235,174); fill-rule: nonzero; opacity: 1;"  paint-order="stroke"  transform=" translate(-8.265, 11.31)" d="M 11.02 -17.86 L 16.1 -17.86 L 16.1 -22.62 L 0.43 -22.62 L 0.43 -17.86 L 5.51 -17.86 L 5.51 0 L 11.02 0 Z" stroke-linecap="round" />
</g>
</g>
</g>
<g transform="matrix(1.9184632908154302 -0.10164006289522302 0.10164006289522304 1.9184632908154304 630.3510031795271 220.68822080037745)" id="text-logo-7"  >
<g style=""  paint-order="stroke"   >
		<g transform="matrix(1 0 0 1 0 0)" id="text-logo-7-path-0"  >
<path style="stroke: rgb(0,0,0); stroke-width: 3; stroke-dasharray: none; stroke-linecap: butt; stroke-dashoffset: 0; stroke-linejoin: miter; stroke-miterlimit: 4; fill: rgb(112,235,174); fill-rule: nonzero; opacity: 1;"  paint-order="stroke"  transform=" translate(0, 0)" d="" stroke-linecap="round" />
</g>
</g>
</g>
<g transform="matrix(1.9157063776312317 0.14457238773272266 -0.14457238773272266 1.9157063776312317 663.2269055338264 199.72066864975596)" id="text-logo-8"  >
<g style=""  paint-order="stroke"   >
		<g transform="matrix(1 0 0 1 0 0)" id="text-logo-8-path-0"  >
<path style="stroke: rgb(0,0,0); stroke-width: 3; stroke-dasharray: none; stroke-linecap: butt; stroke-dashoffset: 0; stroke-linejoin: miter; stroke-miterlimit: 4; fill: rgb(112,235,174); fill-rule: nonzero; opacity: 1;"  paint-order="stroke"  transform=" translate(-9.544999999999998, 11.31)" d="M 6.55 -10.73 L 6.55 -11.89 C 6.55 -15.81 6.96 -18.27 9.71 -18.27 L 10.01 -18.27 C 12.18 -18.27 12.62 -16.53 12.62 -13.92 L 18.13 -13.92 L 18.13 -15.05 C 18.13 -20.88 15.25 -23.03 9.71 -23.03 C 3.63 -23.03 0.96 -19.72 0.96 -11.89 L 0.96 -10.73 C 0.96 -2.9 3.63 0.41 9.71 0.41 C 15.25 0.41 18.13 -1.74 18.13 -7.57 L 18.13 -7.83 L 12.62 -7.83 C 12.62 -5.8 11.95 -4.35 10.01 -4.35 L 9.71 -4.35 C 6.96 -4.35 6.55 -6.82 6.55 -10.73 Z" stroke-linecap="round" />
</g>
</g>
</g>
<g transform="matrix(1.8629228942442775 0.4694149451095919 -0.469414945109592 1.8629228942442777 715.5942862171488 208.22139133905648)" id="text-logo-9"  >
<g style=""  paint-order="stroke"   >
		<g transform="matrix(1 0 0 1 0 0)" id="text-logo-9-path-0"  >
<path style="stroke: rgb(0,0,0); stroke-width: 3; stroke-dasharray: none; stroke-linecap: butt; stroke-dashoffset: 0; stroke-linejoin: miter; stroke-miterlimit: 4; fill: rgb(112,235,174); fill-rule: nonzero; opacity: 1;"  paint-order="stroke"  transform=" translate(-9.424999999999999, 11.31)" d="M 5.66 -22.62 L 0.26 0 L 6.18 0 L 7.08 -4.58 L 11.77 -4.58 L 12.7 0 L 18.59 0 L 13.2 -22.62 Z M 9.43 -16.24 L 10.82 -9.34 L 8.03 -9.34 Z" stroke-linecap="round" />
</g>
</g>
</g>
<g transform="matrix(1.768713394164426 0.7499900198636453 -0.7499900198636453 1.7687133941644262 760.7782901826079 223.39297111921047)" id="text-logo-10"  >
<g style=""  paint-order="stroke"   >
		<g transform="matrix(1 0 0 1 0 0)" id="text-logo-10-path-0"  >
<path style="stroke: rgb(0,0,0); stroke-width: 3; stroke-dasharray: none; stroke-linecap: butt; stroke-dashoffset: 0; stroke-linejoin: miter; stroke-miterlimit: 4; fill: rgb(112,235,174); fill-rule: nonzero; opacity: 1;"  paint-order="stroke"  transform=" translate(-8.265, 11.31)" d="M 11.02 -17.86 L 16.1 -17.86 L 16.1 -22.62 L 0.43 -22.62 L 0.43 -17.86 L 5.51 -17.86 L 5.51 0 L 11.02 0 Z" stroke-linecap="round" />
</g>
</g>
</g>
<g transform="matrix(1.6289069895416008 1.0185745529975876 -1.0185745529975876 1.628906989541601 804.2659822289986 246.05480089397798)" id="text-logo-11"  >
<g style=""  paint-order="stroke"   >
		<g transform="matrix(1 0 0 1 0 0)" id="text-logo-11-path-0"  >
<path style="stroke: rgb(0,0,0); stroke-width: 3; stroke-dasharray: none; stroke-linecap: butt; stroke-dashoffset: 0; stroke-linejoin: miter; stroke-miterlimit: 4; fill: rgb(112,235,174); fill-rule: nonzero; opacity: 1;"  paint-order="stroke"  transform=" translate(-8.555, 11.31)" d="M 1.45 -22.62 L 1.45 0 L 15.66 0 L 15.66 -4.76 L 6.96 -4.76 L 6.96 -9.16 L 14.21 -9.16 L 14.21 -13.92 L 6.96 -13.92 L 6.96 -17.86 L 15.66 -17.86 L 15.66 -22.62 Z" stroke-linecap="round" />
</g>
</g>
</g>
<g transform="matrix(1.44025663984153 1.2714137453968712 -1.2714137453968715 1.4402566398415302 845.0616343073187 276.5635549441189)" id="text-logo-12"  >
<g style=""  paint-order="stroke"   >
		<g transform="matrix(1 0 0 1 0 0)" id="text-logo-12-path-0"  >
<path style="stroke: rgb(0,0,0); stroke-width: 3; stroke-dasharray: none; stroke-linecap: butt; stroke-dashoffset: 0; stroke-linejoin: miter; stroke-miterlimit: 4; fill: rgb(112,235,174); fill-rule: nonzero; opacity: 1;"  paint-order="stroke"  transform=" translate(-9.424999999999999, 11.31)" d="M 6.96 -7.77 L 8.5 -7.77 L 11.46 0 L 17.4 0 L 13.92 -8.53 C 15.92 -9.43 17.4 -11.22 17.4 -14.91 L 17.4 -15.49 C 17.4 -21.75 13.08 -22.62 9.25 -22.62 L 1.45 -22.62 L 1.45 0 L 6.96 0 Z M 6.96 -12.53 L 6.96 -17.86 L 9.48 -17.86 C 10.56 -17.86 11.83 -17.46 11.83 -15.31 L 11.83 -15.08 C 11.83 -12.93 10.56 -12.53 9.48 -12.53 Z" stroke-linecap="round" />
</g>
</g>
</g>
<g transform="matrix(1.254739784193999 1.4548058889599373 -1.4548058889599373 1.254739784193999 874.2792371677895 306.1620449439932)" id="text-logo-13"  >
<g style=""  paint-order="stroke"   >
		<g transform="matrix(1 0 0 1 0 0)" id="text-logo-13-path-0"  >
<path style="stroke: rgb(0,0,0); stroke-width: 3; stroke-dasharray: none; stroke-linecap: butt; stroke-dashoffset: 0; stroke-linejoin: miter; stroke-miterlimit: 4; fill: rgb(112,235,174); fill-rule: nonzero; opacity: 1;"  paint-order="stroke"  transform=" translate(-4.3500000000000005, 11.31)" d="M 7.11 -22.62 L 1.59 -22.62 L 1.59 0 L 7.11 0 Z" stroke-linecap="round" />
</g>
</g>
</g>
<g transform="matrix(1.037051355161579 1.6172064145770784 -1.6172064145770786 1.0370513551615792 900.4326903321735 341.21601331580786)" id="text-logo-14"  >
<g style=""  paint-order="stroke"   >
		<g transform="matrix(1 0 0 1 0 0)" id="text-logo-14-path-0"  >
<path style="stroke: rgb(0,0,0); stroke-width: 3; stroke-dasharray: none; stroke-linecap: butt; stroke-dashoffset: 0; stroke-linejoin: miter; stroke-miterlimit: 4; fill: rgb(112,235,174); fill-rule: nonzero; opacity: 1;"  paint-order="stroke"  transform=" translate(-10.004999999999999, 11.31)" d="M 18.56 -22.62 L 13.34 -22.62 L 13.34 -14.5 L 13.49 -10.15 L 7.25 -22.62 L 1.45 -22.62 L 1.45 0 L 6.67 0 L 6.67 -8.12 L 6.53 -12.47 L 12.76 0 L 18.56 0 Z" stroke-linecap="round" />
</g>
</g>
</g>
<g transform="matrix(0.7304717397209333 1.7768632862605915 -1.7768632862605915 0.7304717397209333 926.0143015269408 390.2786374177829)" id="text-logo-15"  >
<g style=""  paint-order="stroke"   >
		<g transform="matrix(1 0 0 1 0 0)" id="text-logo-15-path-0"  >
<path style="stroke: rgb(0,0,0); stroke-width: 3; stroke-dasharray: none; stroke-linecap: butt; stroke-dashoffset: 0; stroke-linejoin: miter; stroke-miterlimit: 4; fill: rgb(112,235,174); fill-rule: nonzero; opacity: 1;"  paint-order="stroke"  transform=" translate(-9.690000000000001, 11.31)" d="M 10.15 0.41 C 14.21 0.41 16.56 -0.81 18.39 -2.26 L 18.39 -12.59 L 10.15 -12.59 L 10.15 -7.83 L 12.88 -7.83 L 12.88 -4.93 C 12.21 -4.55 11.31 -4.35 10.29 -4.35 L 10.01 -4.35 C 6.96 -4.35 6.55 -6.82 6.55 -10.73 L 6.55 -11.89 C 6.55 -15.81 6.96 -18.27 9.86 -18.27 L 10.15 -18.27 C 12.47 -18.27 12.91 -16.53 12.91 -13.92 L 18.42 -13.92 L 18.42 -15.05 C 18.42 -20.88 15.4 -23.03 9.86 -23.03 C 3.77 -23.03 0.96 -19.72 0.96 -11.89 L 0.96 -10.73 C 0.96 -2.9 3.77 0.41 10.15 0.41 Z" stroke-linecap="round" />
</g>
</g>
</g>
<g transform="matrix(1.4226260580137067 1.2911108394139126 -1.2911108394139126 1.4226260580137067 441.4064927342123 718.618201123886)" id="tagline-b92e7ba8-de3d-4537-bc02-16a142b9c637-logo-0"  >
<g style=""  paint-order="stroke"   >
		<g transform="matrix(1 0 0 1 0 0)" id="tagline-b92e7ba8-de3d-4537-bc02-16a142b9c637-logo-0-path-0"  >
<path style="stroke: rgb(0,0,0); stroke-width: 3; stroke-dasharray: none; stroke-linecap: butt; stroke-dashoffset: 0; stroke-linejoin: miter; stroke-miterlimit: 4; fill: rgb(102,228,198); fill-rule: nonzero; opacity: 1;"  paint-order="stroke"  transform=" translate(-4.215, 7.5600000000000005)" d="M 0.74 -7.35 C 0.74 -2.52 2 0.11 3.68 2.52 L 7.69 2.52 C 5.99 -0.11 4.62 -3.15 4.62 -7.35 L 4.62 -7.77 C 4.62 -11.97 5.99 -15.02 7.69 -17.64 L 3.68 -17.64 C 2 -15.23 0.74 -12.6 0.74 -7.77 Z" stroke-linecap="round" />
</g>
</g>
</g>
<g transform="matrix(1.5523260088378419 1.1318639771974779 -1.131863977197478 1.552326008837842 466.36577071085503 737.3598996037026)" id="tagline-b92e7ba8-de3d-4537-bc02-16a142b9c637-logo-1"  >
<g style=""  paint-order="stroke"   >
		<g transform="matrix(1 0 0 1 0 0)" id="tagline-b92e7ba8-de3d-4537-bc02-16a142b9c637-logo-1-path-0"  >
<path style="stroke: rgb(0,0,0); stroke-width: 3; stroke-dasharray: none; stroke-linecap: butt; stroke-dashoffset: 0; stroke-linejoin: miter; stroke-miterlimit: 4; fill: rgb(102,228,198); fill-rule: nonzero; opacity: 1;"  paint-order="stroke"  transform=" translate(-6.3, 8.19)" d="M 0.63 -10.5 L 4.03 -10.5 L 4.03 -12.98 L 5.73 -12.98 L 7.62 -13.02 L 2.12 0 L 6.3 0 L 11.97 -13.97 L 11.97 -16.38 L 0.63 -16.38 Z" stroke-linecap="round" />
</g>
</g>
</g>
<g transform="matrix(1.6795348902735578 0.9327350389824027 -0.9327350389824027 1.679534890273558 496.689586096017 756.751526792257)" id="tagline-b92e7ba8-de3d-4537-bc02-16a142b9c637-logo-2"  >
<g style=""  paint-order="stroke"   >
		<g transform="matrix(1 0 0 1 0 0)" id="tagline-b92e7ba8-de3d-4537-bc02-16a142b9c637-logo-2-path-0"  >
<path style="stroke: rgb(0,0,0); stroke-width: 3; stroke-dasharray: none; stroke-linecap: butt; stroke-dashoffset: 0; stroke-linejoin: miter; stroke-miterlimit: 4; fill: rgb(102,228,198); fill-rule: nonzero; opacity: 1;"  paint-order="stroke"  transform=" translate(-6.145, 8.19)" d="M 11.87 0 L 11.87 -3.4 L 8.46 -3.4 L 8.46 -16.38 L 5.52 -16.38 L 0.42 -12.92 L 2.33 -10.1 L 4.56 -11.59 L 4.56 -3.4 L 1.16 -3.4 L 1.16 0 Z" stroke-linecap="round" />
</g>
</g>
</g>
<g transform="matrix(1.781335983798202 0.719495805003343 -0.7194958050033431 1.7813359837982021 529.7092509777582 772.5354742930983)" id="tagline-b92e7ba8-de3d-4537-bc02-16a142b9c637-logo-3"  >
<g style=""  paint-order="stroke"   >
		<g transform="matrix(1 0 0 1 0 0)" id="tagline-b92e7ba8-de3d-4537-bc02-16a142b9c637-logo-3-path-0"  >
<path style="stroke: rgb(0,0,0); stroke-width: 3; stroke-dasharray: none; stroke-linecap: butt; stroke-dashoffset: 0; stroke-linejoin: miter; stroke-miterlimit: 4; fill: rgb(102,228,198); fill-rule: nonzero; opacity: 1;"  paint-order="stroke"  transform=" translate(-6.305, 8.190000000000001)" d="M 1.58 0.29 C 5.08 0.29 7.75 -0.32 9.55 -2.73 C 11.3 -5.06 11.87 -7.69 11.87 -10.29 L 11.87 -10.58 C 11.87 -14.18 10 -16.67 6.3 -16.67 C 2.54 -16.67 0.74 -14.6 0.74 -11.42 L 0.74 -11.21 C 0.74 -8.04 2.5 -6.05 5.23 -6.05 C 6.11 -6.05 6.85 -6.26 7.48 -6.62 C 7.25 -5.94 6.95 -5.36 6.55 -4.89 C 5.52 -3.68 4.07 -3.17 1.58 -3.15 Z M 6.26 -9.43 L 6.15 -9.43 C 5.31 -9.43 4.64 -9.87 4.64 -11.11 L 4.64 -11.53 C 4.64 -12.66 5.42 -13.27 6.24 -13.27 L 6.36 -13.27 C 7.25 -13.27 7.96 -12.5 7.96 -10.92 L 7.96 -10.35 C 7.54 -9.7 6.83 -9.43 6.26 -9.43 Z" stroke-linecap="round" />
</g>
</g>
</g>
<g transform="matrix(1.8479647654308813 0.525222168532235 -0.525222168532235 1.8479647654308815 558.808321206129 783.8169721418951)" id="tagline-b92e7ba8-de3d-4537-bc02-16a142b9c637-logo-4"  >
<g style=""  paint-order="stroke"   >
		<g transform="matrix(0.9999999999999999 0 0 1 0 0)" id="tagline-b92e7ba8-de3d-4537-bc02-16a142b9c637-logo-4-path-0"  >
<path style="stroke: rgb(0,0,0); stroke-width: 3; stroke-dasharray: none; stroke-linecap: butt; stroke-dashoffset: 0; stroke-linejoin: miter; stroke-miterlimit: 4; fill: rgb(102,228,198); fill-rule: nonzero; opacity: 1;"  paint-order="stroke"  transform=" translate(-3.77, 7.5600000000000005)" d="M 7.25 -7.77 C 7.25 -12.6 5.99 -15.23 4.31 -17.64 L 0.29 -17.64 C 2 -15.02 3.36 -11.97 3.36 -7.77 L 3.36 -7.35 C 3.36 -3.15 2 -0.11 0.29 2.52 L 4.31 2.52 C 5.99 0.11 7.25 -2.52 7.25 -7.35 Z" stroke-linecap="round" />
</g>
</g>
</g>
<g transform="matrix(1.883140156256958 0.38028312148218707 -0.3802831214821871 1.8831401562569583 582.6476953390186 804.390747842016)" id="tagline-b92e7ba8-de3d-4537-bc02-16a142b9c637-logo-5"  >
<g style=""  paint-order="stroke"   >
		<g transform="matrix(1 0 0 1 0 0)" id="tagline-b92e7ba8-de3d-4537-bc02-16a142b9c637-logo-5-path-0"  >
<path style="stroke: rgb(0,0,0); stroke-width: 3; stroke-dasharray: none; stroke-linecap: butt; stroke-dashoffset: 0; stroke-linejoin: miter; stroke-miterlimit: 4; fill: rgb(102,228,198); fill-rule: nonzero; opacity: 1;"  paint-order="stroke"  transform=" translate(0, 0)" d="" stroke-linecap="round" />
</g>
</g>
</g>
<g transform="matrix(1.9104740770256734 0.20228915345271808 -0.20228915345271808 1.9104740770256734 609.1188888704229 792.6529448533217)" id="tagline-b92e7ba8-de3d-4537-bc02-16a142b9c637-logo-6"  >
<g style=""  paint-order="stroke"   >
		<g transform="matrix(1 0 0 1 0 0)" id="tagline-b92e7ba8-de3d-4537-bc02-16a142b9c637-logo-6-path-0"  >
<path style="stroke: rgb(0,0,0); stroke-width: 3; stroke-dasharray: none; stroke-linecap: butt; stroke-dashoffset: 0; stroke-linejoin: miter; stroke-miterlimit: 4; fill: rgb(102,228,198); fill-rule: nonzero; opacity: 1;"  paint-order="stroke"  transform=" translate(-6.305, 8.045)" d="M 0.74 -5.25 L 0.74 -4.96 C 0.74 -1.58 2.6 0.29 6.3 0.29 C 10.06 0.29 11.87 -1.83 11.87 -5 L 11.87 -5.42 C 11.87 -8.59 10.06 -10.71 6.51 -10.71 C 5.75 -10.71 5.02 -10.56 4.39 -10.33 L 4.49 -12.98 L 11.66 -12.98 L 11.66 -16.38 L 1.24 -16.38 L 0.86 -7.46 L 4.22 -6.3 C 4.6 -6.99 5.42 -7.31 6.09 -7.31 L 6.2 -7.31 C 7.22 -7.31 7.96 -6.78 7.96 -5.31 L 7.96 -5.1 C 7.96 -3.63 7.22 -3.11 6.41 -3.11 L 6.2 -3.11 C 5.38 -3.11 4.64 -3.57 4.64 -5.25 Z" stroke-linecap="round" />
</g>
</g>
</g>
<g transform="matrix(1.9208569182834832 -0.03377573203049943 0.03377573203049943 1.9208569182834832 645.4141590205146 794.249281155071)" id="tagline-b92e7ba8-de3d-4537-bc02-16a142b9c637-logo-7"  >
<g style=""  paint-order="stroke"   >
		<g transform="matrix(1 0 0 1 0 0)" id="tagline-b92e7ba8-de3d-4537-bc02-16a142b9c637-logo-7-path-0"  >
<path style="stroke: rgb(0,0,0); stroke-width: 3; stroke-dasharray: none; stroke-linecap: butt; stroke-dashoffset: 0; stroke-linejoin: miter; stroke-miterlimit: 4; fill: rgb(102,228,198); fill-rule: nonzero; opacity: 1;"  paint-order="stroke"  transform=" translate(-6.305, 8.045)" d="M 0.74 -5.25 L 0.74 -4.96 C 0.74 -1.58 2.6 0.29 6.3 0.29 C 10.06 0.29 11.87 -1.83 11.87 -5 L 11.87 -5.42 C 11.87 -8.59 10.06 -10.71 6.51 -10.71 C 5.75 -10.71 5.02 -10.56 4.39 -10.33 L 4.49 -12.98 L 11.66 -12.98 L 11.66 -16.38 L 1.24 -16.38 L 0.86 -7.46 L 4.22 -6.3 C 4.6 -6.99 5.42 -7.31 6.09 -7.31 L 6.2 -7.31 C 7.22 -7.31 7.96 -6.78 7.96 -5.31 L 7.96 -5.1 C 7.96 -3.63 7.22 -3.11 6.41 -3.11 L 6.2 -3.11 C 5.38 -3.11 4.64 -3.57 4.64 -5.25 Z" stroke-linecap="round" />
</g>
</g>
</g>
<g transform="matrix(1.9021812830131193 -0.26932966258152546 0.26932966258152546 1.9021812830131195 681.2926128447559 791.1388144718655)" id="tagline-b92e7ba8-de3d-4537-bc02-16a142b9c637-logo-8"  >
<g style=""  paint-order="stroke"   >
		<g transform="matrix(0.9999999999999999 0 0 1 0 0)" id="tagline-b92e7ba8-de3d-4537-bc02-16a142b9c637-logo-8-path-0"  >
<path style="stroke: rgb(0,0,0); stroke-width: 3; stroke-dasharray: none; stroke-linecap: butt; stroke-dashoffset: 0; stroke-linejoin: miter; stroke-miterlimit: 4; fill: rgb(102,228,198); fill-rule: nonzero; opacity: 1;"  paint-order="stroke"  transform=" translate(-6.145, 8.19)" d="M 11.87 0 L 11.87 -3.4 L 8.46 -3.4 L 8.46 -16.38 L 5.52 -16.38 L 0.42 -12.92 L 2.33 -10.1 L 4.56 -11.59 L 4.56 -3.4 L 1.16 -3.4 L 1.16 0 Z" stroke-linecap="round" />
</g>
</g>
</g>
<g transform="matrix(1.8632477397492213 -0.4681238734684795 0.46812387346847956 1.8632477397492215 712.5204538332029 786.6824501780625)" id="tagline-b92e7ba8-de3d-4537-bc02-16a142b9c637-logo-9"  >
<g style=""  paint-order="stroke"   >
		<g transform="matrix(0.9999999999999999 0 0 1 0 0)" id="tagline-b92e7ba8-de3d-4537-bc02-16a142b9c637-logo-9-path-0"  >
<path style="stroke: rgb(0,0,0); stroke-width: 3; stroke-dasharray: none; stroke-linecap: butt; stroke-dashoffset: 0; stroke-linejoin: miter; stroke-miterlimit: 4; fill: rgb(102,228,198); fill-rule: nonzero; opacity: 1;"  paint-order="stroke"  transform=" translate(-3.78, 7.35)" d="M 0.84 -5.67 L 6.72 -5.67 L 6.72 -9.03 L 0.84 -9.03 Z" stroke-linecap="round" />
</g>
</g>
</g>
<g transform="matrix(1.8035984628349977 -0.6617134466299966 0.6617134466299966 1.8035984628349977 741.8654683524837 775.9543353918557)" id="tagline-b92e7ba8-de3d-4537-bc02-16a142b9c637-logo-10"  >
<g style=""  paint-order="stroke"   >
		<g transform="matrix(1 0 0 1 0 0)" id="tagline-b92e7ba8-de3d-4537-bc02-16a142b9c637-logo-10-path-0"  >
<path style="stroke: rgb(0,0,0); stroke-width: 3; stroke-dasharray: none; stroke-linecap: butt; stroke-dashoffset: 0; stroke-linejoin: miter; stroke-miterlimit: 4; fill: rgb(102,228,198); fill-rule: nonzero; opacity: 1;"  paint-order="stroke"  transform=" translate(-6.305, 8.190000000000001)" d="M 1.58 0.29 C 5.08 0.29 7.75 -0.32 9.55 -2.73 C 11.3 -5.06 11.87 -7.69 11.87 -10.29 L 11.87 -10.58 C 11.87 -14.18 10 -16.67 6.3 -16.67 C 2.54 -16.67 0.74 -14.6 0.74 -11.42 L 0.74 -11.21 C 0.74 -8.04 2.5 -6.05 5.23 -6.05 C 6.11 -6.05 6.85 -6.26 7.48 -6.62 C 7.25 -5.94 6.95 -5.36 6.55 -4.89 C 5.52 -3.68 4.07 -3.17 1.58 -3.15 Z M 6.26 -9.43 L 6.15 -9.43 C 5.31 -9.43 4.64 -9.87 4.64 -11.11 L 4.64 -11.53 C 4.64 -12.66 5.42 -13.27 6.24 -13.27 L 6.36 -13.27 C 7.25 -13.27 7.96 -12.5 7.96 -10.92 L 7.96 -10.35 C 7.54 -9.7 6.83 -9.43 6.26 -9.43 Z" stroke-linecap="round" />
</g>
</g>
</g>
<g transform="matrix(1.7087224904544438 -0.8781227426771722 0.8781227426771722 1.7087224904544438 775.1035258442633 761.3845915298239)" id="tagline-b92e7ba8-de3d-4537-bc02-16a142b9c637-logo-11"  >
<g style=""  paint-order="stroke"   >
		<g transform="matrix(1 0 0 1.0000000000000002 0 0)" id="tagline-b92e7ba8-de3d-4537-bc02-16a142b9c637-logo-11-path-0"  >
<path style="stroke: rgb(0,0,0); stroke-width: 3; stroke-dasharray: none; stroke-linecap: butt; stroke-dashoffset: 0; stroke-linejoin: miter; stroke-miterlimit: 4; fill: rgb(102,228,198); fill-rule: nonzero; opacity: 1;"  paint-order="stroke"  transform=" translate(-6.305000000000001, 8.19)" d="M 10.56 0 L 10.56 -3.34 L 12.08 -3.34 L 12.08 -6.74 L 10.56 -6.74 L 10.56 -16.38 L 6.89 -16.38 L 0.53 -6.09 L 0.53 -3.34 L 6.66 -3.34 L 6.66 0 Z M 6.7 -10.21 L 6.66 -9.28 L 6.66 -6.74 L 5.38 -6.74 L 4.52 -6.7 Z" stroke-linecap="round" />
</g>
</g>
</g>
<g transform="matrix(1.587997183899431 -1.0812479107583022 1.0812479107583024 1.5879971838994311 806.3027732832987 742.8384414288994)" id="tagline-b92e7ba8-de3d-4537-bc02-16a142b9c637-logo-12"  >
<g style=""  paint-order="stroke"   >
		<g transform="matrix(1 0 0 1 0 0)" id="tagline-b92e7ba8-de3d-4537-bc02-16a142b9c637-logo-12-path-0"  >
<path style="stroke: rgb(0,0,0); stroke-width: 3; stroke-dasharray: none; stroke-linecap: butt; stroke-dashoffset: 0; stroke-linejoin: miter; stroke-miterlimit: 4; fill: rgb(102,228,198); fill-rule: nonzero; opacity: 1;"  paint-order="stroke"  transform=" translate(-6.3, 8.190000000000001)" d="M 11.76 -4.62 L 11.76 -11.76 C 11.76 -14.6 9.87 -16.67 6.3 -16.67 C 2.73 -16.67 0.84 -14.6 0.84 -11.76 L 0.84 -4.62 C 0.84 -1.79 2.73 0.29 6.3 0.29 C 9.87 0.29 11.76 -1.79 11.76 -4.62 Z M 7.85 -11.76 L 7.85 -4.62 C 7.85 -3.74 7.33 -3.11 6.34 -3.11 L 6.26 -3.11 C 5.27 -3.11 4.75 -3.74 4.75 -4.62 L 4.75 -11.76 C 4.75 -12.64 5.27 -13.27 6.26 -13.27 L 6.34 -13.27 C 7.33 -13.27 7.85 -12.64 7.85 -11.76 Z" stroke-linecap="round" />
</g>
</g>
</g>
<g transform="matrix(1.443248860087941 -1.2680160994429748 1.2680160994429748 1.4432488600879412 834.9922877261135 720.6052509730623)" id="tagline-b92e7ba8-de3d-4537-bc02-16a142b9c637-logo-13"  >
<g style=""  paint-order="stroke"   >
		<g transform="matrix(1 0 0 1 0 0)" id="tagline-b92e7ba8-de3d-4537-bc02-16a142b9c637-logo-13-path-0"  >
<path style="stroke: rgb(0,0,0); stroke-width: 3; stroke-dasharray: none; stroke-linecap: butt; stroke-dashoffset: 0; stroke-linejoin: miter; stroke-miterlimit: 4; fill: rgb(102,228,198); fill-rule: nonzero; opacity: 1;"  paint-order="stroke"  transform=" translate(-6.305, 8.190000000000001)" d="M 1.58 0.29 C 5.08 0.29 7.75 -0.32 9.55 -2.73 C 11.3 -5.06 11.87 -7.69 11.87 -10.29 L 11.87 -10.58 C 11.87 -14.18 10 -16.67 6.3 -16.67 C 2.54 -16.67 0.74 -14.6 0.74 -11.42 L 0.74 -11.21 C 0.74 -8.04 2.5 -6.05 5.23 -6.05 C 6.11 -6.05 6.85 -6.26 7.48 -6.62 C 7.25 -5.94 6.95 -5.36 6.55 -4.89 C 5.52 -3.68 4.07 -3.17 1.58 -3.15 Z M 6.26 -9.43 L 6.15 -9.43 C 5.31 -9.43 4.64 -9.87 4.64 -11.11 L 4.64 -11.53 C 4.64 -12.66 5.42 -13.27 6.24 -13.27 L 6.36 -13.27 C 7.25 -13.27 7.96 -12.5 7.96 -10.92 L 7.96 -10.35 C 7.54 -9.7 6.83 -9.43 6.26 -9.43 Z" stroke-linecap="round" />
</g>
</g>
</g>
</svg>