<svg width="208" height="207" xmlns="http://www.w3.org/2000/svg" xmlns:xlink="http://www.w3.org/1999/xlink" overflow="hidden"><defs><clipPath id="clip0"><rect x="1926" y="1195" width="208" height="207"/></clipPath></defs><g clip-path="url(#clip0)" transform="translate(-1926 -1195)"><path d="M1956.42 1348.18C1959.61 1342.43 1963.51 1338.9 1970.54 1332.63 1977.99 1325.99 1980.17 1325.23 1983.53 1322.11 1988.69 1317.32 1994.74 1308.74 1996.91 1292.2 1992.88 1292.79 1989.82 1292.15 1987.89 1291.51 1979.69 1288.81 1973.85 1280.35 1972.33 1269.89 1975.2 1270.42 1978.07 1270.94 1980.95 1271.47 1979.51 1269.97 1977.13 1267.03 1976.49 1262.88 1975.55 1256.83 1978.88 1251.95 1980.65 1249.35 1986.96 1240.11 2007.43 1232.31 2034.77 1229.41 2034.33 1230.8 2033.51 1232.77 2031.9 1234.65 2027.37 1239.93 2021 1239.34 2014.45 1242.05 2010.57 1243.66 2005.58 1246.87 2000.87 1253.9 2002.99 1254.49 2005.1 1255.08 2007.22 1255.67 2023.16 1251 2033.98 1251.4 2041.12 1252.81 2044.2 1253.42 2052.5 1255.39 2063.02 1253.6 2065.97 1253.1 2068.36 1252.43 2069.96 1251.92 2069.23 1251.35 2067.84 1250.31 2066 1249.16 2057.22 1243.67 2051.38 1244 2047.56 1238.69 2046.98 1237.89 2046.08 1236.44 2045.48 1234.25 2054.38 1234.2 2061.42 1235.83 2066.1 1237.31 2068.86 1238.18 2084.54 1243.33 2090.38 1254.19 2091.9 1257.01 2092.13 1259.06 2091.67 1260.81 2090.61 1264.85 2086.03 1266.6 2085.13 1266.93 2088.93 1267.22 2092.73 1267.52 2096.53 1267.82 2096.15 1270.28 2095.12 1274.56 2091.94 1278.73 2085.73 1286.87 2076.26 1288.07 2074.32 1288.28 2071.96 1291.29 2069.26 1295.29 2066.89 1300.3 2063.95 1306.5 2062.5 1312.17 2061.74 1316.49 2066.35 1318.57 2071.49 1321.47 2076.6 1325.57 2094.24 1339.69 2100.26 1358.87 2102.4 1368 2119.51 1350.05 2130.01 1325.79 2130.01 1299.09 2130.01 1243.81 2085.01 1199 2029.51 1199 1974.01 1199 1929.01 1243.81 1929.01 1299.09 1929.01 1323.15 1937.54 1345.23 1951.74 1362.49 1952.67 1355.79 1954.83 1351.04 1956.42 1348.18Z" fill-rule="evenodd"/><path d="M1951.01 1364.22C1951.74 1356.45 1954.17 1351.04 1955.91 1347.91 1959.11 1342.16 1963 1338.62 1970.03 1332.34 1977.48 1325.69 1979.66 1324.93 1983.01 1321.81 1988.18 1317.02 1994.22 1308.42 1996.39 1291.86 1992.37 1292.46 1989.3 1291.81 1987.37 1291.17 1979.17 1288.46 1973.34 1279.99 1971.82 1269.53 1974.69 1270.05 1977.56 1270.58 1980.44 1271.11 1979 1269.6 1976.62 1266.66 1975.98 1262.51 1975.04 1256.45 1978.37 1251.56 1980.14 1248.97 1986.45 1239.71 2006.91 1231.9 2034.24 1229 2033.79 1230.39 2032.97 1232.36 2031.36 1234.24 2026.83 1239.53 2020.47 1238.93 2013.93 1241.65 2010.04 1243.26 2005.06 1246.47 2000.35 1253.51 2002.47 1254.11 2004.58 1254.7 2006.69 1255.29 2022.63 1250.61 2033.44 1251.01 2040.58 1252.43 2043.66 1253.04 2051.95 1255.01 2062.48 1253.22 2065.42 1252.71 2067.81 1252.04 2069.41 1251.54 2068.68 1250.96 2067.29 1249.92 2065.45 1248.77 2056.67 1243.27 2050.84 1243.61 2047.02 1238.29 2046.44 1237.48 2045.54 1236.04 2044.94 1233.84 2053.84 1233.79 2060.87 1235.43 2065.55 1236.91 2068.31 1237.78 2083.98 1242.93 2089.82 1253.81 2091.34 1256.63 2091.57 1258.68 2091.11 1260.43 2090.05 1264.48 2085.47 1266.23 2084.57 1266.56 2088.37 1266.86 2092.17 1267.15 2095.97 1267.45 2095.59 1269.91 2094.56 1274.2 2091.38 1278.37 2085.17 1286.53 2075.7 1287.73 2073.77 1287.93 2071.41 1290.95 2068.71 1294.96 2066.34 1299.97 2063.4 1306.18 2061.95 1311.86 2061.19 1316.18 2065.8 1318.26 2070.94 1321.17 2076.05 1325.27 2094.19 1339.81 2100.03 1359.72 2102.01 1368.51 2096.13 1374.33 2071.57 1397.27 2033.05 1398.91 1985.5 1400.93 1955.25 1368.86 1951.01 1364.22Z" fill="#0A2224" fill-rule="evenodd"/><path d="M2047.68 1334.54C2043.77 1336.15 2040.75 1332.74 2036.8 1332.47 2033.6 1332.26 2028.96 1334.04 2022.82 1343.15 2025.16 1346.95 2026.08 1348.49 2028.24 1349.68 2029.89 1350.59 2031.37 1350.81 2032.62 1350.98 2038.11 1351.73 2039.38 1349.4 2045.17 1349.31 2050.14 1349.23 2052.22 1350.9 2054.29 1349.31 2055.87 1348.09 2056.23 1345.91 2056.3 1344.37 2055.55 1344.49 2054.58 1344.58 2053.3 1344.66 2051.78 1344.75 2049.69 1344.81 2047.16 1344.72 2049.71 1339.73 2053.41 1336.61 2056.66 1337.07 2056.74 1337.08 2056.83 1337.1 2056.93 1337.12 2056.93 1335 2056.93 1332.89 2056.93 1330.78 2056.07 1330.92 2054.78 1331.19 2053.28 1331.72 2050.22 1332.8 2049.21 1333.92 2047.68 1334.54ZM2037.68 1344.66C2033.65 1344.42 2032.66 1343.98 2031.92 1343.31 2031.84 1343.24 2030.02 1341.54 2030.5 1339.73 2030.98 1337.94 2033.24 1337.22 2034.32 1337.07 2037.57 1336.61 2041.27 1339.73 2043.81 1344.72 2041.29 1344.81 2039.19 1344.75 2037.68 1344.66ZM1961.63 1372.35C1961.4 1368.35 1961.62 1361.88 1964.61 1354.74 1968.89 1344.53 1976.3 1339.04 1979.34 1337.03 1976.01 1340.04 1970.81 1345.51 1966.88 1353.8 1963.41 1361.11 1962.27 1367.79 1961.9 1372.35 1961.81 1372.35 1961.72 1372.35 1961.63 1372.35ZM2019.17 1335.99C2019.97 1337.79 2021.16 1340.28 2022.82 1343.15 2017.31 1334.16 2015.81 1331.96 2014.09 1327.15 2013.81 1326.35 2013.61 1325.75 2013.57 1325.62 2012.69 1322.34 2011.91 1317.93 2012.13 1312.75 2012.22 1310.38 2012.51 1308.23 2012.88 1306.34 2012.89 1307.66 2012.95 1309.63 2013.15 1312.02 2014.15 1323.89 2017.68 1332.61 2019.17 1335.99ZM2016.85 1285.82C2019.04 1286.51 2032.51 1290.98 2039 1305.15 2044.3 1316.74 2041.53 1327.39 2040.7 1330.21 2041.37 1326.6 2042.7 1316.71 2037.68 1305.9 2035.97 1302.23 2033.86 1299.16 2031.63 1296.61 2028.03 1299.43 2022.99 1299.42 2019.62 1296.68 2016.52 1294.16 2015.36 1289.76 2016.85 1285.82ZM2007.63 1395.36C2007.76 1395.38 2007.89 1395.41 2008.01 1395.44 2007.74 1395.54 2007.46 1395.65 2007.18 1395.76 2007.01 1395.83 2006.83 1395.91 2006.66 1396 2005.52 1395.79 2004.39 1395.55 2003.25 1395.3 2003.47 1394.58 2003.65 1393.85 2003.8 1393.1 2004.08 1393.18 2004.36 1393.26 2004.64 1393.34 2006.41 1389.03 2008.57 1382.34 2008.98 1373.93 2009.45 1364.23 2007.4 1356.46 2005.77 1351.79 2007.81 1355.39 2010.25 1360.77 2011.37 1367.65 2013.46 1380.5 2009.65 1390.82 2007.63 1395.36ZM2098.43 1367.61C2097.32 1360.88 2094.5 1350.52 2086.89 1340.26 2076.55 1326.32 2063.38 1320.65 2058.09 1318.69 2058.68 1315.46 2059.55 1311.98 2060.8 1308.35 2062.57 1303.25 2064.71 1298.97 2066.75 1295.54 2066 1296.27 2064.85 1297.22 2063.26 1297.99 2060.99 1299.08 2058.91 1299.28 2057.69 1299.31 2056.37 1301.71 2054.99 1304.91 2054.2 1308.82 2052.15 1318.9 2055.32 1327.22 2056.93 1330.78 2056.49 1329.95 2047.14 1311.8 2056.93 1296.86 2060.88 1290.84 2066.34 1287.76 2069.58 1286.3 2069.63 1285.96 2069.68 1285.61 2069.72 1285.25 2071.69 1285.63 2073.99 1285.77 2076.47 1285.36 2087.48 1283.53 2092.84 1272.32 2093.56 1270.76L2072.75 1270.76C2076.35 1269.23 2079.14 1267.57 2081.16 1266.21 2085.37 1263.38 2088.4 1261.28 2088.64 1258.16 2089 1253.4 2082.58 1249.41 2077.8 1246.51 2072.16 1243.09 2062.74 1238.58 2049.08 1237.04 2059.65 1240.47 2066.6 1244.93 2070.83 1248.19 2073.65 1250.36 2075.2 1251.94 2074.86 1253.3 2074.25 1255.81 2067.51 1256.36 2061.71 1256.4 2054.01 1254.99 2044.21 1253.93 2032.89 1254.46 2023.44 1254.9 2015.2 1256.34 2008.48 1258 2002.35 1257.67 1996.67 1256.67 1996.04 1254.06 1995.6 1252.27 1997.63 1250.18 2001.34 1247.33 2006.9 1243.05 2016.04 1237.19 2029.94 1232.67 2011.97 1234.7 1999.59 1240.63 1992.17 1245.13 1985.89 1248.94 1977.45 1254.19 1977.93 1260.45 1978.24 1264.54 1982.22 1267.31 1987.75 1271.03 1989.27 1272.05 1991.11 1273.19 1993.29 1274.36 1990.05 1275.12 1986.25 1275.56 1982.04 1275.18 1979.76 1274.98 1977.69 1274.56 1975.88 1274.05 1976.17 1274.96 1979.96 1286.17 1990.48 1288.75 1994.73 1289.8 1998.44 1289.03 2000.58 1288.38 2000.32 1296.76 1998.56 1307.42 1991.89 1317.02 1982.69 1330.27 1970.63 1331.1 1961.78 1344.91 1956.79 1352.7 1955.24 1360.74 1954.75 1366.38 1953.35 1364.73 1952.05 1363.01 1950.87 1361.18 1950.62 1360.8 1950.33 1360.46 1950.01 1360.16 1951.26 1353.47 1953.63 1347.35 1957.11 1341.93 1962.26 1333.88 1968.51 1329.63 1974.01 1325.89 1978.86 1322.59 1983.44 1319.47 1987.34 1313.86 1991.06 1308.51 1993.45 1302.12 1994.48 1294.8 1992.68 1294.78 1990.88 1294.55 1989.15 1294.13 1975.79 1290.84 1971.09 1277.28 1970.6 1275.74L1967.46 1265.96 1975.48 1268.2C1973.77 1266.13 1972.62 1263.77 1972.4 1260.87 1971.65 1251.09 1982.27 1244.66 1989.29 1240.4 2001 1233.3 2014.47 1228.85 2029.31 1227.17 2033.09 1226.78 2036.86 1226.39 2040.63 1226 2040.59 1227.27 2040.34 1229.66 2038.87 1232.16 2036.53 1236.14 2032.76 1237.56 2031.65 1237.94 2020.74 1241.32 2011.92 1246.18 2004.72 1251.71 2004.57 1251.83 2004.42 1251.95 2004.29 1252.06 2005.27 1252.19 2006.49 1252.32 2007.98 1252.42 2016.07 1250.49 2024.36 1249.31 2032.64 1248.93 2034.68 1248.83 2036.75 1248.78 2038.79 1248.78 2046.61 1248.78 2054.47 1249.48 2062.18 1250.86 2063.23 1250.85 2064.15 1250.82 2064.98 1250.78 2059.91 1247.3 2054 1244.46 2047.37 1242.3 2046.71 1242.05 2042.2 1240.26 2040.76 1235.61 2040.11 1233.51 2040.34 1231.65 2040.57 1230.59 2043.62 1230.9 2046.66 1231.22 2049.71 1231.54 2065.46 1232.84 2075.47 1238.62 2080.68 1241.78 2086.3 1245.19 2094.79 1250.34 2094.17 1258.58 2093.96 1261.26 2092.84 1263.4 2091.24 1265.22L2102.21 1265.22 2098.6 1273.06C2096.4 1277.14 2089.46 1288.73 2077.39 1290.82 2076.17 1291.03 2074.86 1291.15 2073.44 1291.15 2070.7 1295.61 2067.81 1301.46 2065.9 1308.63 2065.28 1310.98 2064.82 1313.23 2064.49 1315.35 2072.02 1318.79 2082.7 1325.31 2091.35 1336.97 2097.83 1345.71 2101.25 1354.62 2103.01 1362.2 2102.94 1362.27 2102.54 1363.1 2102.45 1363.24 2102.34 1363.41 2102.22 1363.58 2102.11 1363.75 2102.08 1363.78 2102.04 1363.83 2101.98 1363.9 2101.24 1364.78 2100.42 1365.58 2099.62 1366.39 2099.22 1366.79 2098.82 1367.2 2098.43 1367.61ZM2084.39 1379.28C2084.64 1377.64 2084.79 1375.78 2084.75 1373.74 2084.65 1368.46 2083.33 1364.25 2082.23 1361.55 2083.85 1364.19 2085.96 1368.4 2086.76 1373.93 2086.93 1375.03 2087.02 1376.09 2087.06 1377.08 2086.27 1377.91 2085.36 1378.63 2084.39 1379.28ZM1981.23 1260.2C1981.67 1263.98 1984.81 1265.94 1985.21 1266.18 1982.38 1265.26 1980.28 1263.12 1979.9 1260.58 1979.54 1258.15 1980.89 1256.17 1981.42 1255.4 1982.82 1253.33 1984.72 1252.42 1985.54 1252.08 1982.55 1253.78 1980.85 1257 1981.23 1260.2Z" fill="#44FFA6" fill-rule="evenodd"/><path d="M2029.51 1201.5C2083.08 1201.5 2126.51 1244.93 2126.51 1298.5 2126.51 1352.07 2083.08 1395.5 2029.51 1395.5 1975.94 1395.5 1932.51 1352.07 1932.51 1298.5 1932.51 1244.93 1975.94 1201.5 2029.51 1201.5M2029.51 1195C2015.54 1195 2001.98 1197.74 1989.22 1203.14 1976.9 1208.35 1965.83 1215.81 1956.32 1225.31 1946.82 1234.82 1939.36 1245.88 1934.15 1258.21 1928.75 1270.97 1926.01 1284.53 1926.01 1298.5 1926.01 1312.47 1928.75 1326.02 1934.15 1338.79 1939.36 1351.11 1946.82 1362.18 1956.32 1371.68 1965.83 1381.19 1976.9 1388.65 1989.22 1393.86 2001.98 1399.26 2015.54 1402 2029.51 1402 2043.48 1402 2057.03 1399.26 2069.8 1393.86 2082.12 1388.65 2093.19 1381.19 2102.7 1371.68 2112.2 1362.18 2119.66 1351.11 2124.87 1338.79 2130.27 1326.02 2133.01 1312.47 2133.01 1298.5 2133.01 1284.53 2130.27 1270.97 2124.87 1258.21 2119.66 1245.88 2112.2 1234.82 2102.7 1225.31 2093.19 1215.81 2082.12 1208.35 2069.8 1203.14 2057.03 1197.74 2043.48 1195 2029.51 1195L2029.51 1195Z" fill="#44FFA6" fill-rule="evenodd"/></g></svg>